<svg version="1.2" xmlns="http://www.w3.org/2000/svg" viewBox="0 0 368 393" width="368" height="393"><style>.a{fill:#fcfcfb}.b{fill:#364b73}.c{fill:#f5dcde}</style><path class="a" d="m159.5 36.1c-2.2 0.5-7.3 1.4-11.3 1.9-3.9 0.6-7.5 1.2-7.9 1.5-0.5 0.2-4.9 1.3-9.8 2.4-5 1-13.7 3.9-19.5 6.4-5.8 2.5-13.4 6.2-17 8.2-3.6 2-10 6.2-14.4 9.3-4.3 3.2-12.6 10.2-18.5 15.8-5.8 5.5-14.8 15.4-19.9 22-6 7.8-11.4 16.2-15.6 24.4-3.5 6.9-7.1 14.8-7.9 17.5-0.9 2.7-2.8 10.2-4.2 16.5-2.4 10.2-2.8 14.1-3.3 34.5-0.4 18.1-0.1 26.1 1.3 37.5 0.9 8 2.8 18.1 4.2 22.5 1.4 4.4 4.7 12.7 7.5 18.5 2.7 5.8 8.2 15.4 12.3 21.5 4 6.1 10.2 14.2 13.7 18.1 3.5 3.9 10.1 10.6 14.8 14.8 4.7 4.2 12.5 10.6 17.5 14.1 5 3.6 14.2 9.1 20.5 12.4 6.3 3.2 12.8 6.6 14.5 7.5 1.7 0.9 4 1.6 5.3 1.6 1.2 0 6.1 1.3 10.9 3 5.1 1.7 16.1 4 26.3 5.6 16.7 2.6 18.2 2.6 32.5 1.6 8.2-0.7 18.8-1.9 23.5-2.7 4.7-0.9 14.1-3 21-4.7 6.9-1.7 15.7-4.4 19.5-6.1 3.9-1.7 11.2-5.6 16.3-8.6 5.2-3.1 11.3-7.2 13.7-9.1 2.4-1.9 7.1-5.5 10.5-8 3.4-2.5 9.2-7.6 12.8-11.5 3.7-3.9 9.5-10.6 12.8-15 3.4-4.4 8.5-11.6 11.3-16 2.9-4.4 7.2-12.1 9.6-17 2.4-4.9 5.7-13.1 7.4-18 1.6-4.9 3.8-13.5 4.8-19 1.5-8.1 1.8-15.1 1.8-36.5 0-21.3-0.4-28.3-1.8-35.5-1-4.9-2.7-11.9-3.8-15.5-1.2-3.6-4.7-11.9-8-18.5-3.2-6.6-8.9-16.3-12.7-21.7-3.7-5.3-8.5-12-10.8-15-2.3-2.9-8.1-9.3-13-14.1-4.9-4.9-13.6-12.3-19.4-16.4-5.8-4.1-15.2-9.8-21-12.8-5.8-2.9-15.2-6.9-21-8.9-5.8-2-15.4-4.6-21.5-5.7-6.1-1.2-14.8-2.5-19.5-2.9-4.7-0.5-15.7-0.8-24.5-0.8-8.8 0-17.8 0.4-20 0.9z"/><path fill-rule="evenodd" class="b" d="m87 83.3c4.4 0.3 10 1.5 13.5 2.8 3.8 1.5 8.1 4.3 17.5 12.9l7.3-2.9c3.9-1.6 10.4-3.8 14.2-5 3.8-1.2 12.1-3.1 18.3-4.2 6.4-1.1 15.8-1.9 21.9-1.9 6 0 14.6 0.5 19.3 1 4.7 0.5 12.9 2.1 18.3 3.5 5.3 1.4 14.1 4.4 19.4 6.8 5.4 2.4 13.1 6.4 17.1 9 3.9 2.6 11.3 8.4 16.4 13 5.1 4.5 11.6 11.1 14.6 14.7 2.9 3.6 6.5 8.7 8 11.3 1.5 2.6 3.1 4.6 3.7 4.4 0.6-0.2 1.9-2.1 2.9-4.3 1.8-3.5 1.9-4.6 0.8-11.4-1.1-7.2-1-7.6 1.1-9.3 1.2-1 2.8-1.8 3.5-1.7 0.6 0 2.3 1 3.8 2.3 1.9 1.7 2.6 3.5 3.1 7.7 0.3 3.1 0 7.4-0.7 10-0.9 3.2-2.8 6-12 15l2.5 9.3c1.4 5 3 11.9 3.6 15.2 0.7 3.8 0.9 11.5 0.5 21-0.3 8.3-1.3 17.7-2.1 21-0.9 3.3-2.5 8.5-3.7 11.5-1.2 3-4.5 9.6-7.3 14.5-2.9 4.9-7.5 12-10.4 15.8-4.9 6.5-5.3 7.3-9.7 25-2.5 10-5.3 19.6-6.3 21.2-0.9 1.6-3.1 3.7-4.7 4.7-1.7 1-5.7 1.7-9.9 1.9-3.8 0.2-12.7 0.2-19.8 0.1-12.6-0.2-12.7-0.2-12.1-2.4 0.3-1.3 1.9-5.9 3.6-10.3 1.6-4.4 2.8-8.9 2.6-10-0.2-1.7-0.9-2-4.3-1.7-2.2 0.2-8.5 1.2-14 2.4-8.9 1.8-12.1 2-48.5 0.8l-2.1 4.3c-1.2 2.3-3.3 6-4.7 8.2-1.4 2.2-3.5 5-4.6 6.3-2.1 2.2-2.6 2.3-21.6 2.2-10.7 0-20.2-0.5-21-1-1.3-0.8-1.3-1.5 0.3-5.7 1.1-2.6 2.5-7.5 3.3-10.8 0.7-3.3 1.4-9 1.4-12.7 0-4.4-0.5-7.2-1.3-8-0.8-0.7-5.8-4-11.1-7.3-5.4-3.3-13.4-9.1-17.8-13-4.5-3.8-10.2-9.8-12.7-13.2-2.5-3.4-5.5-7.6-6.6-9.4-1.1-1.8-4.9-5.3-8.5-7.7-3.6-2.4-7.7-5.6-9.3-7-1.5-1.5-4-5.2-5.6-8.2-1.6-3-3.5-8.7-4.2-12.5-0.6-3.8-0.9-9.2-0.5-12 0.3-2.7 1.7-7.4 3.1-10.2 2.2-4.6 3.7-6.1 20-16.8l4.6-11.5c2.5-6.3 5.8-13.5 7.4-16 1.5-2.5 6.7-8.4 20.5-22l-3.1-10.2c-1.7-5.7-3.6-10.9-4.3-11.6-0.6-0.7-2.2-1.3-3.6-1.5-1.7-0.1-2.5-0.8-2.5-2.2 0-1.1 1.1-2.5 2.5-3.3 1.7-0.9 4.9-1.2 10-0.9zm194.3 24.1c2 0.3 4.7 1.2 5.9 2 1.3 0.8 2.6 2.5 3 3.8 0.4 1.2 0.8 3.5 0.8 5.1 0 1.5 1.6 5.9 3.5 9.7 1.9 3.8 3.5 7.7 3.5 8.5 0 0.8-0.3 1.5-0.8 1.5-0.4 0-4.3-3.7-8.8-8.2-4.4-4.6-9.1-9.6-10.3-11.3-1.2-1.7-2.2-4.6-2.3-6.6-0.1-2 0.3-3.9 0.8-4.3 0.5-0.4 2.6-0.5 4.6-0.2z"/><path class="c" d="m168.5 98c-3.8 0.5-9.9 1.6-13.5 2.5-3.6 0.8-7.4 2.2-8.5 3-1.7 1.3-1.8 1.6-0.5 2.4 0.8 0.5 5 3.6 9.3 7 4.2 3.3 9 8 10.6 10.3 1.6 2.4 3.7 6.3 4.5 8.8 0.9 2.5 1.6 6.4 1.6 8.7 0 3.9-0.4 4.6-4.3 7.3-2.3 1.7-4.5 3-5 3-0.4 0-0.7-3.3-0.7-7.3 0-6.5-0.3-7.7-3.2-12.1-1.8-2.7-5.1-6.4-7.3-8.1-2.2-1.8-5.5-4-7.3-4.9-1.7-0.9-5-1.7-7.2-1.9-3.8-0.2-4.5 0.2-10 6-3.3 3.5-6.7 6.3-7.5 6.3-0.9 0-1.3-0.7-1.1-1.8 0.3-0.9 1.1-5.2 1.8-9.4q1.3-7.8 0.3-8.7c-0.6-0.7-3.1-0.1-7 1.5-3.3 1.3-8.4 3.9-11.4 5.7-3 1.7-8.8 6.4-12.9 10.2-4.1 3.8-8.9 9-10.7 11.5-1.9 2.5-5.4 9.4-8 15.5-3.3 8-5.6 12-8.3 14.5-2 1.9-4.8 4.2-6.1 5l-2.4 1.5c9.8 11.8 12.3 15.8 13.2 19.1 0.9 3.2 1.2 7.1 0.8 11.4-0.5 5.1-1.3 7.4-3.6 10.7-1.7 2.4-2.8 4.5-2.3 4.7 0.4 0.2 2.3 0.7 4.2 1.1 2.3 0.4 4.9 0.1 7.5-1 2.2-0.9 6-1.5 8.5-1.3q4.5 0.3 4.8 1.8c0.2 0.8-0.9 3-2.5 4.8-1.5 1.9-5.2 4.5-8 5.8l-5.3 2.4c2.6 5 5.8 9 8.9 12.1 3.1 3 8.5 7.5 12.1 9.9 3.6 2.4 11.1 6.5 16.8 9.2 8.8 4.2 10.4 5.2 11.3 8 0.7 1.8 1.3 9.5 1.5 17.1l0.4 13.7c11.2-0.1 16.3-0.4 18.5-0.8 3.9-0.7 4.2-1 9-10.4 2.7-5.4 5.2-10 5.5-10.3 0.3-0.3 3.2 0.1 6.5 0.9 3.3 0.9 10.5 2 16 2.7 7.7 0.9 12 0.9 19-0.1 4.9-0.7 14.2-2.5 20.5-4.1 6.3-1.6 12.3-3.2 13.2-3.4 1.4-0.4 2.8 1.2 5.9 6.2 4.1 6.7 4.1 6.8 2.9 11.8-0.6 2.7-0.9 5.6-0.6 6.2 0.4 0.9 2.8 1.3 6.8 1.2 3.5 0 8.1-0.3 10.2-0.7 3.8-0.7 4-0.9 5.4-6.2 0.7-3 2.2-10.4 3.3-16.5 1-6.1 2.6-11.9 3.4-13 0.8-1.1 4-5.1 7.1-9 3-3.8 7.5-11.1 10-16 2.4-4.9 5.4-12.6 6.6-17 1.9-7 2.2-10.3 2.1-27.5-0.1-17.7-0.3-20.4-2.7-29.5-1.5-5.5-4.1-12.5-5.9-15.5-1.7-3-5.7-8.7-8.8-12.5-3.1-3.8-8.7-9.7-12.5-13-3.8-3.4-8.7-7.4-10.9-9.1-2.2-1.7-6.4-4.5-9.2-6.2-2.9-1.8-9-4.7-13.5-6.6-4.6-1.9-12.4-4.4-17.3-5.6-6.2-1.5-13.4-2.2-23-2.5-7.7-0.2-17.2 0-21 0.5zm-122.5 90c-1.1 0.7-1.5 2.8-1.5 8.4 0 6.6 0.3 7.7 2.5 10 1.4 1.5 3 2.6 3.5 2.6 0.5 0 1.8-1.5 2.8-3.2 1.3-2.4 1.7-4.4 1.3-7.3-0.3-2.2-1.6-5.5-2.8-7.4-1.3-1.9-2.8-3.6-3.3-3.8-0.5-0.1-1.7 0.2-2.5 0.7z"/><path class="b" d="m174 104.8c-1.3 0.9-1.2 1.4 0.8 4.1 1.2 1.7 3.2 3.6 4.5 4.2 1.2 0.7 7.8 2 14.7 3 6.9 0.9 15.9 3 20 4.5 4.1 1.4 11 4.4 15.3 6.5 4.2 2.2 8.3 3.9 8.9 3.9 0.7 0 2.6-1.3 4.3-3l3-3c-3.3-3.5-8.1-6.4-12.7-8.7-4.5-2.3-11-5.2-14.3-6.3-3.3-1.2-9.6-2.8-14-3.6-4.4-0.8-12.7-1.7-18.5-2-6-0.3-11.1-0.1-12 0.4zm-74 50.6c-1.4 0.7-3.3 3-4.3 5-0.9 2-1.7 4.6-1.7 5.9 0 1.2 1 3.8 2.2 5.7 1.3 1.9 4 4.3 6.1 5.3 2.9 1.3 4.4 1.5 7.2 0.7 2.2-0.6 4.2-2.2 5.5-4.2 1.1-1.8 2.2-4.5 2.5-6 0.3-1.6-0.2-4.3-1.3-6.4-0.9-2-3-4.5-4.7-5.5-1.7-1-4.3-1.8-6-1.8-1.7 0-4.1 0.6-5.5 1.3z"/></svg>